<?xml version="1.0" encoding="utf-8"?>
<!-- Generator: Adobe Illustrator 17.0.0, SVG Export Plug-In . SVG Version: 6.00 Build 0)  -->
<!DOCTYPE svg PUBLIC "-//W3C//DTD SVG 1.1//EN" "http://www.w3.org/Graphics/SVG/1.1/DTD/svg11.dtd">
<svg version="1.1" id="图层_1" xmlns="http://www.w3.org/2000/svg" xmlns:xlink="http://www.w3.org/1999/xlink" x="0px" y="0px"
	 width="1000px" height="1000px" viewBox="0 0 1000 1000" enable-background="new 0 0 1000 1000" xml:space="preserve">
<g>
	<path fill-rule="evenodd" clip-rule="evenodd" fill="#2ED0B5" d="M157.641,270.285c0,0,60.006-127.539,161.433,0
		c101.223,127.693,0,165.12,0,165.12s-67.481,63.847-15.053,105.165c52.532,41.165,180.224,153.805,180.224,153.805
		s50.586,67.43,104.96,18.688c67.584-56.115,93.85-65.587,146.33-26.214c91.597,68.3,120.218,137.011-18.586,191.385
		c-153.907,75.059-427.827-183.91-427.827-183.91S18.838,435.405,157.641,270.285L157.641,270.285z"/>
	<path fill-rule="evenodd" clip-rule="evenodd" fill="#2ED0B5" d="M506.672,336.282c0,0-50.586,5.376-41.37-47.36
		c4.25-23.961,45.056-31.846,82.586-20.429c37.734,11.213,178.33,73.114,184.013,230.81c0,0-10.394,44.237-43.367,35.482
		c-35.43-9.421-26.112-76.493-28.108-89.549C658.634,432.129,609.942,330.701,506.672,336.282L506.672,336.282z"/>
	<path fill-rule="evenodd" clip-rule="evenodd" fill="#2ED0B5" d="M604.157,199.322c0,0-61.901,6.451-50.483-57.805
		c5.068-29.491,55.142-39.116,101.222-25.344c45.926,13.824,218.163,89.6,224.973,282.522c0,0-14.746,60.211-52.634,43.776
		c-33.126-14.592-34.816-96-37.017-112.077C787.709,314.317,730.774,192.41,604.157,199.322L604.157,199.322z"/>
</g>
</svg>
